<svg xmlns="http://www.w3.org/2000/svg" width="32" height="32" id="ecommerce"><g color="#000" font-family="sans-serif" font-weight="400"><path fill="#f05542" style="line-height:normal;text-indent:0;text-align:start;text-decoration-line:none;text-decoration-style:solid;text-decoration-color:#000;text-transform:none;block-progression:tb;isolation:auto;mix-blend-mode:normal" d="M-993.158 46.857a.5.5 0 0 0-.5.5v1.248c-.468.136-.916.32-1.344.551l-.877-.879a.5.5 0 0 0-.707 0l-1.994 1.994a.5.5 0 0 0 0 .708l.88.88a6.82 6.82 0 0 0-.554 1.34h-1.246a.5.5 0 0 0-.5.5v1.658a.5.5 0 1 0 1 0V54.2h1.074a.5.5 0 0 0 .488-.39c.147-.64.4-1.25.749-1.807a.5.5 0 0 0-.07-.621l-.759-.758 1.286-1.285.753.754a.5.5 0 0 0 .62.072c.557-.348 1.169-.6 1.81-.744a.5.5 0 0 0 .39-.486v-1.077h1.817v1.075a.5.5 0 0 0 .389.486c.64.146 1.252.399 1.808.748a.5.5 0 0 0 .62-.07l.757-.758 1.286 1.285-.754.754a.5.5 0 0 0-.07.62c.347.557.598 1.17.742 1.812a.5.5 0 0 0 .488.39h1.076v1.158a.5.5 0 1 0 1 0V53.7a.5.5 0 0 0-.5-.5h-1.248a6.82 6.82 0 0 0-.55-1.344l.878-.876a.5.5 0 0 0 0-.708l-1.994-1.994a.5.5 0 0 0-.707 0l-.88.883a6.81 6.81 0 0 0-1.34-.556v-1.247a.5.5 0 0 0-.5-.5h-2.817zm1.408 3.75a4.513 4.513 0 0 0-4.5 4.5.5.5 0 1 0 1 0c0-1.93 1.569-3.5 3.5-3.5s3.5 1.57 3.5 3.5a.5.5 0 1 0 1 0c0-2.475-2.025-4.5-4.5-4.5z" overflow="visible" transform="translate(1010 -46.357)"></path><path fill="#2b4255" style="line-height:normal;text-indent:0;text-align:start;text-decoration-line:none;text-decoration-style:solid;text-decoration-color:#000;text-transform:none;block-progression:tb;isolation:auto;mix-blend-mode:normal" d="M-1007 52.365v1h3.332l3.482 14.608a.5.5 0 0 0 .487.384h14.588a.5.5 0 0 0 .478-.357l3.612-12a.5.5 0 0 0-.479-.643h-20.666l-.621-2.607a.5.5 0 0 0-.486-.385H-1007zm5.072 3.992h19.756l-3.31 11h-13.823l-2.623-11z" overflow="visible" transform="translate(1010 -46.357)"></path><path fill="#2b4255" style="line-height:normal;text-indent:0;text-align:start;text-decoration-line:none;text-decoration-style:solid;text-decoration-color:#000;text-transform:none;block-progression:tb;isolation:auto;mix-blend-mode:normal" d="M-1003.3 52.34a.5.5 0 0 0-.46.623l4.674 19.463a.5.5 0 0 0 .486.383h11.553a.5.5 0 1 0 0-1h-11.158l-4.582-19.08a.5.5 0 0 0-.514-.39z" overflow="visible" transform="translate(1010 -46.357)"></path><path fill="#2b4255" style="line-height:normal;text-indent:0;text-align:start;text-decoration-line:none;text-decoration-style:solid;text-decoration-color:#000;text-transform:none;block-progression:tb;isolation:auto;mix-blend-mode:normal" d="M-998.277 71.799a3.286 3.286 0 0 0-3.278 3.28 3.286 3.286 0 0 0 3.278 3.278A3.286 3.286 0 0 0-995 75.078a3.286 3.286 0 0 0-3.277-3.28zm0 1a2.27 2.27 0 0 1 2.277 2.28 2.27 2.27 0 0 1-2.277 2.278 2.27 2.27 0 0 1-2.278-2.279 2.27 2.27 0 0 1 2.278-2.28zm11-1a3.286 3.286 0 0 0-3.278 3.28 3.286 3.286 0 0 0 3.278 3.278A3.286 3.286 0 0 0-984 75.078a3.286 3.286 0 0 0-3.277-3.28zm0 1a2.27 2.27 0 0 1 2.277 2.28 2.27 2.27 0 0 1-2.277 2.278 2.27 2.27 0 0 1-2.278-2.279 2.27 2.27 0 0 1 2.278-2.28z" overflow="visible" transform="translate(1010 -46.357)"></path><path fill="#2b4255" fill-rule="evenodd" style="line-height:normal;text-indent:0;text-align:start;text-decoration-line:none;text-decoration-style:solid;text-decoration-color:#000;text-transform:none;block-progression:tb;isolation:auto;mix-blend-mode:normal" d="M-995 58.357v1h12.6v-1H-995zm2 3v1h10v-1h-10zm2 3v1h7v-1h-7z" overflow="visible" transform="translate(1010 -46.357)"></path></g></svg>